<svg width="761" height="480" viewBox="0 0 761 480" fill="none" xmlns="http://www.w3.org/2000/svg">
<g clip-path="url(#clip0_269_98)">
<g filter="url(#filter0_n_269_98)">
<g clip-path="url(#clip1_269_98)">
<rect width="280" height="280" transform="translate(256.5)" fill="url(#paint0_linear_269_98)"/>
<g filter="url(#filter1_f_269_98)">
<rect x="190.5" y="-66" width="412" height="412" fill="url(#paint1_radial_269_98)" fill-opacity="0.8"/>
</g>
</g>
</g>
<path d="M295.832 98.3214C295.396 95.418 297.396 92.7108 300.299 92.2746L443.6 70.7443C446.503 70.308 449.21 72.3081 449.647 75.2114L450.635 81.788C451.071 84.6913 449.071 87.3986 446.168 87.8348L302.867 109.365C299.963 109.801 297.256 107.801 296.82 104.898L295.832 98.3214Z" fill="white"/>
<path d="M301.609 133.863C301.173 130.959 303.173 128.252 306.077 127.816L449.377 106.286C452.281 105.849 454.988 107.849 455.424 110.753L456.412 117.329C456.849 120.233 454.849 122.94 451.945 123.376L308.644 144.906C305.741 145.343 303.034 143.343 302.597 140.439L301.609 133.863Z" fill="white"/>
<path d="M307.386 169.404C306.95 166.501 308.95 163.794 311.854 163.357L455.155 141.827C458.058 141.391 460.765 143.391 461.201 146.294L462.189 152.871C462.626 155.774 460.626 158.482 457.722 158.918L314.421 180.448C311.518 180.884 308.811 178.884 308.375 175.981L307.386 169.404Z" fill="white"/>
<path d="M472.09 185.941C474.867 186.844 475.421 190.53 473.032 192.21L457.59 203.066C455.435 204.582 452.439 203.299 452.047 200.694L449.539 183.998C449.148 181.392 451.635 179.286 454.14 180.101L472.09 185.941Z" fill="white"/>
<path d="M287.968 55.791C285.579 57.4707 286.132 61.1569 288.91 62.0603L306.86 67.8998C309.365 68.7148 311.852 66.6084 311.461 64.0031L308.952 47.3072C308.561 44.7019 305.565 43.4193 303.409 44.9346L287.968 55.791Z" fill="white"/>
</g>
<path d="M22.4928 328.662V477.338H0V328.662H22.4928ZM58.0722 424.912H17.1763V404.843H53.3692C62.9116 404.843 70.2047 402.317 75.2485 397.266C80.2924 392.215 82.8143 385.252 82.8143 376.378C82.8143 367.64 80.2924 360.882 75.2485 356.104C70.2047 351.189 63.0479 348.731 53.7782 348.731H13.4957V328.662H58.0722C67.8873 328.662 76.4072 330.642 83.6322 334.601C90.8572 338.56 96.4463 344.158 100.4 351.394C104.353 358.629 106.329 367.026 106.329 376.582C106.329 386.003 104.353 394.399 100.4 401.771C96.4463 409.007 90.8572 414.673 83.6322 418.769C76.4072 422.864 67.8873 424.912 58.0722 424.912Z" fill="white"/>
<path d="M146.884 480C136.251 480 127.867 477.201 121.733 471.604C115.734 465.87 112.735 458.361 112.735 449.077C112.735 439.793 115.939 432.421 122.346 426.96C128.889 421.363 138.159 418.086 150.155 417.13L181.032 414.673V412.215C181.032 407.027 180.077 402.863 178.169 399.723C176.26 396.583 173.602 394.331 170.194 392.965C166.923 391.6 163.037 390.918 158.539 390.918C150.769 390.918 144.771 392.488 140.545 395.628C136.319 398.768 134.206 403.273 134.206 409.144H115.598C115.598 401.908 117.37 395.696 120.915 390.508C124.595 385.184 129.775 381.088 136.455 378.221C143.135 375.354 150.837 373.92 159.561 373.92C168.149 373.92 175.579 375.422 181.85 378.426C188.257 381.429 193.232 386.003 196.777 392.146C200.321 398.29 202.093 405.935 202.093 415.082V477.338H183.485L181.441 461.569C178.987 467.167 174.625 471.672 168.354 475.085C162.083 478.362 154.926 480 146.884 480ZM153.427 463.412C162.015 463.412 168.763 460.887 173.67 455.835C178.714 450.647 181.236 443.753 181.236 435.152V429.622L157.516 431.67C149.201 432.353 143.271 434.196 139.727 437.199C136.182 440.066 134.41 443.753 134.41 448.258C134.41 453.309 136.114 457.132 139.522 459.726C142.93 462.184 147.565 463.412 153.427 463.412Z" fill="white"/>
<path d="M283.484 376.173V396.037H274.691C265.558 396.037 258.333 398.631 253.016 403.819C247.836 408.871 245.246 416.243 245.246 425.936V477.338H223.776V376.992H244.019L245.86 397.471H243.815C245.178 390.781 248.382 385.388 253.425 381.293C258.469 377.06 265.013 374.944 273.055 374.944C274.691 374.944 276.327 375.012 277.963 375.149C279.735 375.285 281.576 375.627 283.484 376.173Z" fill="white"/>
<path d="M318.845 477.338H297.374V326H318.845V477.338Z" fill="white"/>
<path d="M371.643 480C361.011 480 352.627 477.201 346.492 471.604C340.494 465.87 337.495 458.361 337.495 449.077C337.495 439.793 340.699 432.421 347.106 426.96C353.649 421.363 362.919 418.086 374.915 417.13L405.792 414.673V412.215C405.792 407.027 404.837 402.863 402.929 399.723C401.02 396.583 398.362 394.331 394.954 392.965C391.682 391.6 387.797 390.918 383.299 390.918C375.529 390.918 369.531 392.488 365.305 395.628C361.079 398.768 358.966 403.273 358.966 409.144H340.358C340.358 401.908 342.13 395.696 345.675 390.508C349.355 385.184 354.535 381.088 361.215 378.221C367.895 375.354 375.597 373.92 384.321 373.92C392.909 373.92 400.339 375.422 406.609 378.426C413.017 381.429 417.992 386.003 421.537 392.146C425.081 398.29 426.853 405.935 426.853 415.082V477.338H408.245L406.201 461.569C403.747 467.167 399.385 471.672 393.114 475.085C386.843 478.362 379.686 480 371.643 480ZM378.187 463.412C386.775 463.412 393.523 460.887 398.43 455.835C403.474 450.647 405.996 443.753 405.996 435.152V429.622L382.276 431.67C373.961 432.353 368.031 434.196 364.487 437.199C360.942 440.066 359.17 443.753 359.17 448.258C359.17 453.309 360.874 457.132 364.282 459.726C367.69 462.184 372.325 463.412 378.187 463.412Z" fill="white"/>
<path d="M470.006 477.338H448.536V376.787H468.166L470.211 391.327C473.346 385.866 477.845 381.634 483.706 378.63C489.568 375.49 496.043 373.92 503.132 373.92C516.082 373.92 525.693 377.675 531.964 385.184C538.234 392.556 541.37 402.727 541.37 415.697V477.338H520.104V420.612C520.104 411.191 517.991 404.297 513.765 399.928C509.539 395.559 503.95 393.375 496.998 393.375C488.409 393.375 481.73 396.174 476.959 401.771C472.324 407.232 470.006 414.536 470.006 423.684V477.338Z" fill="white"/>
<path d="M556.722 426.96C556.722 416.584 558.835 407.437 563.06 399.519C567.286 391.464 573.08 385.184 580.441 380.678C587.939 376.173 596.595 373.92 606.41 373.92C619.497 373.92 630.266 377.333 638.718 384.16C647.306 390.986 652.35 400.201 653.849 411.806H632.175C630.675 405.662 627.676 401.02 623.177 397.88C618.815 394.74 613.499 393.17 607.228 393.17C601.503 393.17 596.459 394.535 592.097 397.266C587.734 399.996 584.326 403.887 581.873 408.939C579.419 413.99 578.192 419.997 578.192 426.96C578.192 433.786 579.351 439.725 581.668 444.777C583.986 449.828 587.257 453.719 591.483 456.449C595.709 459.18 600.685 460.545 606.41 460.545C613.09 460.545 618.679 458.975 623.177 455.835C627.812 452.559 630.88 447.985 632.379 442.114H654.054C652.827 449.623 650.032 456.245 645.67 461.979C641.308 467.576 635.719 472.013 628.903 475.29C622.223 478.43 614.726 480 606.41 480C596.459 480 587.734 477.816 580.237 473.447C572.739 468.941 566.946 462.73 562.856 454.811C558.766 446.893 556.722 437.609 556.722 426.96Z" fill="white"/>
<path d="M713.561 480C703.746 480 695.021 477.747 687.387 473.242C679.89 468.737 673.96 462.525 669.598 454.606C665.372 446.688 663.259 437.473 663.259 426.96C663.259 416.584 665.304 407.437 669.393 399.519C673.619 391.464 679.481 385.184 686.978 380.678C694.476 376.173 703.064 373.92 712.743 373.92C722.558 373.92 731.01 376.036 738.098 380.269C745.323 384.364 750.912 390.167 754.866 397.676C758.819 405.184 760.796 413.99 760.796 424.093V431.465L674.71 431.67L675.119 417.54H739.325C739.325 409.758 736.94 403.546 732.168 398.904C727.397 394.126 720.99 391.737 712.947 391.737C706.677 391.737 701.36 393.102 696.998 395.832C692.772 398.426 689.5 402.317 687.183 407.505C684.865 412.693 683.707 418.973 683.707 426.346C683.707 437.95 686.297 446.824 691.477 452.968C696.657 458.975 704.155 461.979 713.97 461.979C721.195 461.979 727.125 460.613 731.759 457.883C736.394 455.016 739.462 450.92 740.961 445.596H761C758.683 456.381 753.366 464.846 745.051 470.989C736.735 476.996 726.238 480 713.561 480Z" fill="white"/>
<defs>
<filter id="filter0_n_269_98" x="256.5" y="0" width="280" height="280" filterUnits="userSpaceOnUse" color-interpolation-filters="sRGB">
<feFlood flood-opacity="0" result="BackgroundImageFix"/>
<feBlend mode="normal" in="SourceGraphic" in2="BackgroundImageFix" result="shape"/>
<feTurbulence type="fractalNoise" baseFrequency="1.6666666269302368 1.6666666269302368" stitchTiles="stitch" numOctaves="3" result="noise" seed="2488" />
<feColorMatrix in="noise" type="luminanceToAlpha" result="alphaNoise" />
<feComponentTransfer in="alphaNoise" result="coloredNoise1">
<feFuncA type="discrete" tableValues="0 0 0 0 0 0 0 0 0 0 0 0 1 1 1 1 1 1 1 1 1 1 1 1 1 1 1 1 1 1 1 1 1 1 1 1 1 1 1 0 0 0 0 0 0 0 0 0 0 0 0 0 0 0 0 0 0 0 0 0 0 0 0 0 0 0 0 0 0 0 0 0 0 0 0 0 0 0 0 0 0 0 0 0 0 0 0 0 0 0 0 0 0 0 0 0 0 0 0 0 "/>
</feComponentTransfer>
<feComposite operator="in" in2="shape" in="coloredNoise1" result="noise1Clipped" />
<feFlood flood-color="rgba(0, 0, 0, 0.52)" result="color1Flood" />
<feComposite operator="in" in2="noise1Clipped" in="color1Flood" result="color1" />
<feMerge result="effect1_noise_269_98">
<feMergeNode in="shape" />
<feMergeNode in="color1" />
</feMerge>
</filter>
<filter id="filter1_f_269_98" x="134.5" y="-122" width="524" height="524" filterUnits="userSpaceOnUse" color-interpolation-filters="sRGB">
<feFlood flood-opacity="0" result="BackgroundImageFix"/>
<feBlend mode="normal" in="SourceGraphic" in2="BackgroundImageFix" result="shape"/>
<feGaussianBlur stdDeviation="28" result="effect1_foregroundBlur_269_98"/>
</filter>
<linearGradient id="paint0_linear_269_98" x1="280" y1="0" x2="0" y2="280" gradientUnits="userSpaceOnUse">
<stop stop-color="#430F96"/>
<stop offset="0.495192" stop-color="#1F1740"/>
<stop offset="1" stop-color="#19022B"/>
</linearGradient>
<radialGradient id="paint1_radial_269_98" cx="0" cy="0" r="1" gradientUnits="userSpaceOnUse" gradientTransform="translate(396.5 140) rotate(44.5797) scale(212.779 116.528)">
<stop stop-color="#200929"/>
<stop offset="1" stop-opacity="0"/>
</radialGradient>
<clipPath id="clip0_269_98">
<rect x="256.5" width="248" height="248" rx="48" fill="white"/>
</clipPath>
<clipPath id="clip1_269_98">
<rect width="280" height="280" fill="white" transform="translate(256.5)"/>
</clipPath>
</defs>
</svg>
