<svg width="330" height="280" viewBox="0 0 330 280" fill="none" xmlns="http://www.w3.org/2000/svg">
<path d="M16.4422 94.9006C15.6768 89.8015 19.186 85.0469 24.2802 84.2808L275.715 46.4677C280.809 45.7016 285.559 49.2141 286.325 54.3132L288.058 65.8634C288.824 70.9625 285.314 75.7172 280.22 76.4833L28.7856 114.296C23.6914 115.063 18.9412 111.55 18.1759 106.451L16.4422 94.9006Z" fill="white"/>
<path d="M26.5794 157.321C25.814 152.222 29.3232 147.467 34.4174 146.701L285.852 108.888C290.946 108.122 295.696 111.634 296.462 116.733L298.195 128.284C298.961 133.383 295.452 138.137 290.357 138.904L38.9228 176.717C33.8286 177.483 29.0785 173.97 28.3131 168.871L26.5794 157.321Z" fill="white"/>
<path d="M36.7158 219.742C35.9504 214.643 39.4596 209.888 44.5538 209.122L295.989 171.309C301.083 170.543 305.833 174.055 306.598 179.154L308.332 190.704C309.097 195.803 305.588 200.558 300.494 201.324L49.0592 239.137C43.965 239.903 39.2149 236.391 38.4495 231.292L36.7158 219.742Z" fill="white"/>
<path d="M325.704 248.784C330.576 250.37 331.548 256.844 327.356 259.794L300.263 278.861C296.481 281.522 291.224 279.27 290.537 274.694L286.135 245.372C285.449 240.796 289.813 237.097 294.208 238.528L325.704 248.784Z" fill="white"/>
<path d="M2.64362 20.2057C-1.54819 23.1556 -0.576423 29.6296 4.29634 31.2163L35.7916 41.472C40.1874 42.9034 44.5513 39.204 43.8645 34.6284L39.4631 5.30578C38.7763 0.730172 33.519 -1.52234 29.7375 1.13883L2.64362 20.2057Z" fill="white"/>
</svg>
