<svg width="1087" height="248" viewBox="0 0 1087 248" fill="none" xmlns="http://www.w3.org/2000/svg">
<g clip-path="url(#clip0_269_51)">
<g filter="url(#filter0_n_269_51)">
<g clip-path="url(#clip1_269_51)">
<rect width="280" height="280" fill="url(#paint0_linear_269_51)"/>
<rect width="280" height="280" fill="white" fill-opacity="0.5"/>
<g filter="url(#filter1_f_269_51)">
<rect x="-66" y="-66" width="412" height="412" fill="url(#paint1_radial_269_51)" fill-opacity="0.64"/>
</g>
</g>
</g>
<path d="M39.3319 98.3214C38.8956 95.418 40.8957 92.7108 43.799 92.2746L187.1 70.7443C190.003 70.308 192.71 72.3081 193.147 75.2114L194.135 81.788C194.571 84.6913 192.571 87.3986 189.668 87.8348L46.3668 109.365C43.4634 109.801 40.7562 107.801 40.32 104.898L39.3319 98.3214Z" fill="#101828"/>
<path d="M45.1094 133.863C44.6732 130.959 46.6732 128.252 49.5765 127.816L192.877 106.286C195.781 105.849 198.488 107.849 198.924 110.753L199.912 117.329C200.349 120.233 198.349 122.94 195.445 123.376L52.1443 144.906C49.241 145.343 46.5337 143.343 46.0975 140.439L45.1094 133.863Z" fill="#101828"/>
<path d="M50.8865 169.404C50.4503 166.501 52.4503 163.794 55.3536 163.357L198.655 141.827C201.558 141.391 204.265 143.391 204.701 146.294L205.689 152.871C206.126 155.774 204.126 158.482 201.222 158.918L57.9214 180.448C55.0181 180.884 52.3108 178.884 51.8746 175.981L50.8865 169.404Z" fill="#101828"/>
<path d="M215.59 185.941C218.367 186.844 218.921 190.53 216.532 192.21L201.09 203.066C198.935 204.582 195.939 203.299 195.547 200.694L193.039 183.998C192.648 181.392 195.135 179.286 197.64 180.101L215.59 185.941Z" fill="#101828"/>
<path d="M31.4676 55.791C29.0786 57.4707 29.6324 61.1569 32.4096 62.0603L50.3597 67.8998C52.865 68.7148 55.3522 66.6084 54.9608 64.0031L52.4523 47.3072C52.0608 44.7019 49.0645 43.4193 46.9093 44.9346L31.4676 55.791Z" fill="#101828"/>
</g>
<path d="M348.493 49.6622V198.338H326V49.6622H348.493ZM384.072 145.912H343.176V125.843H379.369C388.912 125.843 396.205 123.317 401.249 118.266C406.292 113.215 408.814 106.252 408.814 97.3777C408.814 88.6401 406.292 81.8821 401.249 77.1037C396.205 72.1888 389.048 69.7314 379.778 69.7314H339.496V49.6622H384.072C393.887 49.6622 402.407 51.6418 409.632 55.6011C416.857 59.5603 422.446 65.1578 426.4 72.3936C430.353 79.6294 432.329 88.0257 432.329 97.5824C432.329 107.003 430.353 115.399 426.4 122.771C422.446 130.007 416.857 135.673 409.632 139.769C402.407 143.864 393.887 145.912 384.072 145.912Z" fill="#101828"/>
<path d="M472.884 201C462.251 201 453.867 198.201 447.733 192.604C441.734 186.87 438.735 179.361 438.735 170.077C438.735 160.793 441.939 153.421 448.346 147.96C454.889 142.363 464.159 139.086 476.155 138.13L507.032 135.673V133.215C507.032 128.027 506.077 123.863 504.169 120.723C502.26 117.583 499.602 115.331 496.194 113.965C492.923 112.6 489.037 111.918 484.539 111.918C476.769 111.918 470.771 113.488 466.545 116.628C462.319 119.768 460.206 124.273 460.206 130.144H441.598C441.598 122.908 443.37 116.696 446.915 111.508C450.595 106.184 455.775 102.088 462.455 99.2207C469.135 96.3537 476.837 94.9202 485.561 94.9202C494.149 94.9202 501.579 96.422 507.85 99.4255C514.257 102.429 519.232 107.003 522.777 113.146C526.321 119.29 528.093 126.935 528.093 136.082V198.338H509.485L507.441 182.569C504.987 188.167 500.625 192.672 494.354 196.085C488.083 199.362 480.926 201 472.884 201ZM479.427 184.412C488.015 184.412 494.763 181.887 499.67 176.835C504.714 171.647 507.236 164.753 507.236 156.152V150.622L483.516 152.67C475.201 153.353 469.271 155.196 465.727 158.199C462.182 161.066 460.41 164.753 460.41 169.258C460.41 174.309 462.114 178.132 465.522 180.726C468.93 183.184 473.565 184.412 479.427 184.412Z" fill="#101828"/>
<path d="M609.484 97.1729V117.037H600.691C591.558 117.037 584.333 119.631 579.016 124.819C573.836 129.871 571.246 137.243 571.246 146.936V198.338H549.776V97.992H570.019L571.86 118.471H569.815C571.178 111.781 574.382 106.388 579.425 102.293C584.469 98.0603 591.013 95.9441 599.055 95.9441C600.691 95.9441 602.327 96.0124 603.963 96.1489C605.735 96.2855 607.576 96.6268 609.484 97.1729Z" fill="#101828"/>
<path d="M644.845 198.338H623.374V47H644.845V198.338Z" fill="#101828"/>
<path d="M697.643 201C687.011 201 678.627 198.201 672.492 192.604C666.494 186.87 663.495 179.361 663.495 170.077C663.495 160.793 666.699 153.421 673.106 147.96C679.649 142.363 688.919 139.086 700.915 138.13L731.792 135.673V133.215C731.792 128.027 730.837 123.863 728.929 120.723C727.02 117.583 724.362 115.331 720.954 113.965C717.682 112.6 713.797 111.918 709.299 111.918C701.529 111.918 695.531 113.488 691.305 116.628C687.079 119.768 684.966 124.273 684.966 130.144H666.358C666.358 122.908 668.13 116.696 671.675 111.508C675.355 106.184 680.535 102.088 687.215 99.2207C693.895 96.3537 701.597 94.9202 710.321 94.9202C718.909 94.9202 726.339 96.422 732.609 99.4255C739.017 102.429 743.992 107.003 747.537 113.146C751.081 119.29 752.853 126.935 752.853 136.082V198.338H734.245L732.201 182.569C729.747 188.167 725.385 192.672 719.114 196.085C712.843 199.362 705.686 201 697.643 201ZM704.187 184.412C712.775 184.412 719.523 181.887 724.43 176.835C729.474 171.647 731.996 164.753 731.996 156.152V150.622L708.276 152.67C699.961 153.353 694.031 155.196 690.487 158.199C686.942 161.066 685.17 164.753 685.17 169.258C685.17 174.309 686.874 178.132 690.282 180.726C693.69 183.184 698.325 184.412 704.187 184.412Z" fill="#101828"/>
<path d="M796.006 198.338H774.536V97.7872H794.166L796.211 112.327C799.346 106.866 803.845 102.634 809.706 99.6303C815.568 96.4902 822.043 94.9202 829.132 94.9202C842.082 94.9202 851.693 98.6746 857.964 106.184C864.234 113.556 867.37 123.727 867.37 136.697V198.338H846.104V141.612C846.104 132.191 843.991 125.297 839.765 120.928C835.539 116.559 829.95 114.375 822.998 114.375C814.409 114.375 807.73 117.174 802.959 122.771C798.324 128.232 796.006 135.536 796.006 144.684V198.338Z" fill="#101828"/>
<path d="M882.722 147.96C882.722 137.584 884.835 128.437 889.06 120.519C893.286 112.464 899.08 106.184 906.441 101.678C913.939 97.1729 922.595 94.9202 932.41 94.9202C945.497 94.9202 956.266 98.3333 964.718 105.16C973.306 111.986 978.35 121.201 979.849 132.806H958.175C956.675 126.662 953.676 122.02 949.177 118.88C944.815 115.74 939.499 114.17 933.228 114.17C927.503 114.17 922.459 115.535 918.097 118.266C913.734 120.996 910.326 124.887 907.873 129.939C905.419 134.99 904.192 140.997 904.192 147.96C904.192 154.786 905.351 160.725 907.668 165.777C909.986 170.828 913.257 174.719 917.483 177.449C921.709 180.18 926.685 181.545 932.41 181.545C939.09 181.545 944.679 179.975 949.177 176.835C953.812 173.559 956.88 168.985 958.379 163.114H980.054C978.827 170.623 976.032 177.245 971.67 182.979C967.308 188.576 961.719 193.013 954.903 196.29C948.223 199.43 940.726 201 932.41 201C922.459 201 913.734 198.816 906.237 194.447C898.739 189.941 892.946 183.73 888.856 175.811C884.766 167.893 882.722 158.609 882.722 147.96Z" fill="#101828"/>
<path d="M1039.56 201C1029.75 201 1021.02 198.747 1013.39 194.242C1005.89 189.737 999.96 183.525 995.598 175.606C991.372 167.688 989.259 158.473 989.259 147.96C989.259 137.584 991.304 128.437 995.393 120.519C999.619 112.464 1005.48 106.184 1012.98 101.678C1020.48 97.1729 1029.06 94.9202 1038.74 94.9202C1048.56 94.9202 1057.01 97.0363 1064.1 101.269C1071.32 105.364 1076.91 111.167 1080.87 118.676C1084.82 126.184 1086.8 134.99 1086.8 145.093V152.465L1000.71 152.67L1001.12 138.54H1065.33C1065.33 130.758 1062.94 124.546 1058.17 119.904C1053.4 115.126 1046.99 112.737 1038.95 112.737C1032.68 112.737 1027.36 114.102 1023 116.832C1018.77 119.426 1015.5 123.317 1013.18 128.505C1010.87 133.693 1009.71 139.973 1009.71 147.346C1009.71 158.95 1012.3 167.824 1017.48 173.968C1022.66 179.975 1030.15 182.979 1039.97 182.979C1047.19 182.979 1053.12 181.613 1057.76 178.883C1062.39 176.016 1065.46 171.92 1066.96 166.596H1087C1084.68 177.381 1079.37 185.846 1071.05 191.989C1062.74 197.996 1052.24 201 1039.56 201Z" fill="#101828"/>
<defs>
<filter id="filter0_n_269_51" x="0" y="0" width="280" height="280" filterUnits="userSpaceOnUse" color-interpolation-filters="sRGB">
<feFlood flood-opacity="0" result="BackgroundImageFix"/>
<feBlend mode="normal" in="SourceGraphic" in2="BackgroundImageFix" result="shape"/>
<feTurbulence type="fractalNoise" baseFrequency="1.6666666269302368 1.6666666269302368" stitchTiles="stitch" numOctaves="3" result="noise" seed="2488" />
<feColorMatrix in="noise" type="luminanceToAlpha" result="alphaNoise" />
<feComponentTransfer in="alphaNoise" result="coloredNoise1">
<feFuncA type="discrete" tableValues="0 0 0 0 0 0 0 0 0 0 0 0 1 1 1 1 1 1 1 1 1 1 1 1 1 1 1 1 1 1 1 1 1 1 1 1 1 1 1 0 0 0 0 0 0 0 0 0 0 0 0 0 0 0 0 0 0 0 0 0 0 0 0 0 0 0 0 0 0 0 0 0 0 0 0 0 0 0 0 0 0 0 0 0 0 0 0 0 0 0 0 0 0 0 0 0 0 0 0 0 "/>
</feComponentTransfer>
<feComposite operator="in" in2="shape" in="coloredNoise1" result="noise1Clipped" />
<feFlood flood-color="rgba(0, 0, 0, 0.12)" result="color1Flood" />
<feComposite operator="in" in2="noise1Clipped" in="color1Flood" result="color1" />
<feMerge result="effect1_noise_269_51">
<feMergeNode in="shape" />
<feMergeNode in="color1" />
</feMerge>
</filter>
<filter id="filter1_f_269_51" x="-122" y="-122" width="524" height="524" filterUnits="userSpaceOnUse" color-interpolation-filters="sRGB">
<feFlood flood-opacity="0" result="BackgroundImageFix"/>
<feBlend mode="normal" in="SourceGraphic" in2="BackgroundImageFix" result="shape"/>
<feGaussianBlur stdDeviation="28" result="effect1_foregroundBlur_269_51"/>
</filter>
<linearGradient id="paint0_linear_269_51" x1="280" y1="0" x2="0" y2="280" gradientUnits="userSpaceOnUse">
<stop stop-color="#EDE1FF"/>
<stop offset="0.495192" stop-color="#D9CEFF"/>
<stop offset="1" stop-color="#EED8FF"/>
</linearGradient>
<radialGradient id="paint1_radial_269_51" cx="0" cy="0" r="1" gradientUnits="userSpaceOnUse" gradientTransform="translate(140 140) rotate(44.5797) scale(212.779 116.528)">
<stop stop-color="#C28AD8"/>
<stop offset="1" stop-color="white" stop-opacity="0"/>
</radialGradient>
<clipPath id="clip0_269_51">
<rect width="248" height="248" rx="48" fill="white"/>
</clipPath>
<clipPath id="clip1_269_51">
<rect width="280" height="280" fill="white"/>
</clipPath>
</defs>
</svg>
