<svg width="761" height="422" viewBox="0 0 761 422" fill="none" xmlns="http://www.w3.org/2000/svg">
<path d="M274.259 67.7862C273.711 64.144 276.221 60.7478 279.864 60.2005L459.678 33.1912C463.321 32.644 466.718 35.1529 467.265 38.7951L468.505 47.0453C469.053 50.6875 466.543 54.0837 462.9 54.6309L283.086 81.6403C279.443 82.1875 276.046 79.6785 275.498 76.0363L274.259 67.7862Z" fill="white"/>
<path d="M281.508 112.372C280.961 108.73 283.471 105.334 287.114 104.786L466.928 77.7771C470.571 77.2299 473.968 79.7389 474.515 83.3811L475.755 91.6312C476.302 95.2734 473.793 98.6696 470.15 99.2169L290.336 126.226C286.693 126.773 283.296 124.264 282.748 120.622L281.508 112.372Z" fill="white"/>
<path d="M288.757 156.958C288.21 153.316 290.72 149.92 294.363 149.373L474.177 122.363C477.82 121.816 481.217 124.325 481.764 127.967L483.004 136.217C483.551 139.86 481.042 143.256 477.399 143.803L297.585 170.812C293.942 171.36 290.545 168.851 289.997 165.208L288.757 156.958Z" fill="white"/>
<path d="M495.427 177.703C498.912 178.836 499.607 183.46 496.609 185.567L477.233 199.187C474.529 201.087 470.769 199.478 470.278 196.21L467.13 175.265C466.639 171.997 469.76 169.355 472.904 170.377L495.427 177.703Z" fill="white"/>
<path d="M264.391 14.4327C261.393 16.5397 262.088 21.164 265.573 22.2974L288.096 29.6229C291.24 30.6453 294.361 28.0028 293.87 24.7346L290.722 3.78984C290.231 0.521551 286.471 -1.08738 283.767 0.813447L264.391 14.4327Z" fill="white"/>
<path d="M22.4928 270.662V419.338H0V270.662H22.4928ZM58.0722 366.912H17.1763V346.843H53.3692C62.9116 346.843 70.2047 344.317 75.2485 339.266C80.2924 334.215 82.8143 327.252 82.8143 318.378C82.8143 309.64 80.2924 302.882 75.2485 298.104C70.2047 293.189 63.0479 290.731 53.7782 290.731H13.4957V270.662H58.0722C67.8873 270.662 76.4072 272.642 83.6322 276.601C90.8572 280.56 96.4463 286.158 100.4 293.394C104.353 300.629 106.329 309.026 106.329 318.582C106.329 328.003 104.353 336.399 100.4 343.771C96.4463 351.007 90.8572 356.673 83.6322 360.769C76.4072 364.864 67.8873 366.912 58.0722 366.912Z" fill="white"/>
<path d="M146.884 422C136.251 422 127.867 419.201 121.733 413.604C115.734 407.87 112.735 400.361 112.735 391.077C112.735 381.793 115.939 374.421 122.346 368.96C128.889 363.363 138.159 360.086 150.155 359.13L181.032 356.673V354.215C181.032 349.027 180.077 344.863 178.169 341.723C176.26 338.583 173.602 336.331 170.194 334.965C166.923 333.6 163.037 332.918 158.539 332.918C150.769 332.918 144.771 334.488 140.545 337.628C136.319 340.768 134.206 345.273 134.206 351.144H115.598C115.598 343.908 117.37 337.696 120.915 332.508C124.595 327.184 129.775 323.088 136.455 320.221C143.135 317.354 150.837 315.92 159.561 315.92C168.149 315.92 175.579 317.422 181.85 320.426C188.257 323.429 193.232 328.003 196.777 334.146C200.321 340.29 202.093 347.935 202.093 357.082V419.338H183.485L181.441 403.569C178.987 409.167 174.625 413.672 168.354 417.085C162.083 420.362 154.926 422 146.884 422ZM153.427 405.412C162.015 405.412 168.763 402.887 173.67 397.835C178.714 392.647 181.236 385.753 181.236 377.152V371.622L157.516 373.67C149.201 374.353 143.271 376.196 139.727 379.199C136.182 382.066 134.41 385.753 134.41 390.258C134.41 395.309 136.114 399.132 139.522 401.726C142.93 404.184 147.565 405.412 153.427 405.412Z" fill="white"/>
<path d="M283.484 318.173V338.037H274.691C265.558 338.037 258.333 340.631 253.016 345.819C247.836 350.871 245.246 358.243 245.246 367.936V419.338H223.776V318.992H244.019L245.86 339.471H243.815C245.178 332.781 248.382 327.388 253.425 323.293C258.469 319.06 265.013 316.944 273.055 316.944C274.691 316.944 276.327 317.012 277.963 317.149C279.735 317.285 281.576 317.627 283.484 318.173Z" fill="white"/>
<path d="M318.845 419.338H297.374V268H318.845V419.338Z" fill="white"/>
<path d="M371.643 422C361.011 422 352.627 419.201 346.492 413.604C340.494 407.87 337.495 400.361 337.495 391.077C337.495 381.793 340.699 374.421 347.106 368.96C353.649 363.363 362.919 360.086 374.915 359.13L405.792 356.673V354.215C405.792 349.027 404.837 344.863 402.929 341.723C401.02 338.583 398.362 336.331 394.954 334.965C391.682 333.6 387.797 332.918 383.299 332.918C375.529 332.918 369.531 334.488 365.305 337.628C361.079 340.768 358.966 345.273 358.966 351.144H340.358C340.358 343.908 342.13 337.696 345.675 332.508C349.355 327.184 354.535 323.088 361.215 320.221C367.895 317.354 375.597 315.92 384.321 315.92C392.909 315.92 400.339 317.422 406.609 320.426C413.017 323.429 417.992 328.003 421.537 334.146C425.081 340.29 426.853 347.935 426.853 357.082V419.338H408.245L406.201 403.569C403.747 409.167 399.385 413.672 393.114 417.085C386.843 420.362 379.686 422 371.643 422ZM378.187 405.412C386.775 405.412 393.523 402.887 398.43 397.835C403.474 392.647 405.996 385.753 405.996 377.152V371.622L382.276 373.67C373.961 374.353 368.031 376.196 364.487 379.199C360.942 382.066 359.17 385.753 359.17 390.258C359.17 395.309 360.874 399.132 364.282 401.726C367.69 404.184 372.325 405.412 378.187 405.412Z" fill="white"/>
<path d="M470.006 419.338H448.536V318.787H468.166L470.211 333.327C473.346 327.866 477.845 323.634 483.706 320.63C489.568 317.49 496.043 315.92 503.132 315.92C516.082 315.92 525.693 319.675 531.964 327.184C538.234 334.556 541.37 344.727 541.37 357.697V419.338H520.104V362.612C520.104 353.191 517.991 346.297 513.765 341.928C509.539 337.559 503.95 335.375 496.998 335.375C488.409 335.375 481.73 338.174 476.959 343.771C472.324 349.232 470.006 356.536 470.006 365.684V419.338Z" fill="white"/>
<path d="M556.722 368.96C556.722 358.584 558.835 349.437 563.06 341.519C567.286 333.464 573.08 327.184 580.441 322.678C587.939 318.173 596.595 315.92 606.41 315.92C619.497 315.92 630.266 319.333 638.718 326.16C647.306 332.986 652.35 342.201 653.849 353.806H632.175C630.675 347.662 627.676 343.02 623.177 339.88C618.815 336.74 613.499 335.17 607.228 335.17C601.503 335.17 596.459 336.535 592.097 339.266C587.734 341.996 584.326 345.887 581.873 350.939C579.419 355.99 578.192 361.997 578.192 368.96C578.192 375.786 579.351 381.725 581.668 386.777C583.986 391.828 587.257 395.719 591.483 398.449C595.709 401.18 600.685 402.545 606.41 402.545C613.09 402.545 618.679 400.975 623.177 397.835C627.812 394.559 630.88 389.985 632.379 384.114H654.054C652.827 391.623 650.032 398.245 645.67 403.979C641.308 409.576 635.719 414.013 628.903 417.29C622.223 420.43 614.726 422 606.41 422C596.459 422 587.734 419.816 580.237 415.447C572.739 410.941 566.946 404.73 562.856 396.811C558.766 388.893 556.722 379.609 556.722 368.96Z" fill="white"/>
<path d="M713.561 422C703.746 422 695.021 419.747 687.387 415.242C679.89 410.737 673.96 404.525 669.598 396.606C665.372 388.688 663.259 379.473 663.259 368.96C663.259 358.584 665.304 349.437 669.393 341.519C673.619 333.464 679.481 327.184 686.978 322.678C694.476 318.173 703.064 315.92 712.743 315.92C722.558 315.92 731.01 318.036 738.098 322.269C745.323 326.364 750.912 332.167 754.866 339.676C758.819 347.184 760.796 355.99 760.796 366.093V373.465L674.71 373.67L675.119 359.54H739.325C739.325 351.758 736.94 345.546 732.168 340.904C727.397 336.126 720.99 333.737 712.947 333.737C706.677 333.737 701.36 335.102 696.998 337.832C692.772 340.426 689.5 344.317 687.183 349.505C684.865 354.693 683.707 360.973 683.707 368.346C683.707 379.95 686.297 388.824 691.477 394.968C696.657 400.975 704.155 403.979 713.97 403.979C721.195 403.979 727.125 402.613 731.759 399.883C736.394 397.016 739.462 392.92 740.961 387.596H761C758.683 398.381 753.366 406.846 745.051 412.989C736.735 418.996 726.238 422 713.561 422Z" fill="white"/>
</svg>
