<svg width="1065" height="200" viewBox="0 0 1065 200" fill="none" xmlns="http://www.w3.org/2000/svg">
<path d="M11.7586 67.7862C11.2113 64.144 13.7209 60.7478 17.364 60.2005L197.178 33.1912C200.821 32.644 204.218 35.1529 204.765 38.7951L206.005 47.0453C206.553 50.6875 204.043 54.0837 200.4 54.6309L20.586 81.6403C16.9429 82.1875 13.5459 79.6785 12.9985 76.0363L11.7586 67.7862Z" fill="#101828"/>
<path d="M19.0083 112.372C18.4609 108.73 20.9705 105.334 24.6136 104.786L204.428 77.7771C208.071 77.2299 211.468 79.7389 212.015 83.3811L213.255 91.6312C213.802 95.2734 211.293 98.6696 207.65 99.2169L27.8357 126.226C24.1926 126.773 20.7955 124.264 20.2481 120.622L19.0083 112.372Z" fill="#101828"/>
<path d="M26.2574 156.958C25.71 153.316 28.2196 149.92 31.8627 149.373L211.677 122.363C215.32 121.816 218.717 124.325 219.264 127.967L220.504 136.217C221.051 139.86 218.542 143.256 214.899 143.803L35.0848 170.812C31.4417 171.36 28.0446 168.851 27.4972 165.208L26.2574 156.958Z" fill="#101828"/>
<path d="M232.927 177.703C236.412 178.836 237.107 183.46 234.109 185.567L214.733 199.187C212.029 201.087 208.269 199.478 207.778 196.21L204.63 175.265C204.139 171.997 207.26 169.355 210.404 170.377L232.927 177.703Z" fill="#101828"/>
<path d="M1.89059 14.4327C-1.10719 16.5397 -0.41223 21.164 3.07254 22.2974L25.5964 29.6229C28.7401 30.6453 31.8609 28.0028 31.3698 24.7346L28.2221 3.78984C27.7309 0.521551 23.9712 -1.08738 21.2668 0.813447L1.89059 14.4327Z" fill="#101828"/>
<path d="M326.493 25.6622V174.338H304V25.6622H326.493ZM362.072 121.912H321.176V101.843H357.369C366.912 101.843 374.205 99.3174 379.249 94.266C384.292 89.2145 386.814 82.2518 386.814 73.3777C386.814 64.6401 384.292 57.8821 379.249 53.1037C374.205 48.1888 367.048 45.7314 357.778 45.7314H317.496V25.6622H362.072C371.887 25.6622 380.407 27.6418 387.632 31.6011C394.857 35.5603 400.446 41.1578 404.4 48.3936C408.353 55.6294 410.329 64.0257 410.329 73.5824C410.329 83.0027 408.353 91.3989 404.4 98.7713C400.446 106.007 394.857 111.673 387.632 115.769C380.407 119.864 371.887 121.912 362.072 121.912Z" fill="#101828"/>
<path d="M450.884 177C440.251 177 431.867 174.201 425.733 168.604C419.734 162.87 416.735 155.361 416.735 146.077C416.735 136.793 419.939 129.421 426.346 123.96C432.889 118.363 442.159 115.086 454.155 114.13L485.032 111.673V109.215C485.032 104.027 484.077 99.8635 482.169 96.7234C480.26 93.5833 477.602 91.3307 474.194 89.9654C470.923 88.6002 467.037 87.9175 462.539 87.9175C454.769 87.9175 448.771 89.4876 444.545 92.6277C440.319 95.7677 438.206 100.273 438.206 106.144H419.598C419.598 98.9078 421.37 92.6959 424.915 87.508C428.595 82.1835 433.775 78.0878 440.455 75.2207C447.135 72.3537 454.837 70.9202 463.561 70.9202C472.149 70.9202 479.579 72.422 485.85 75.4255C492.257 78.4291 497.232 83.0027 500.777 89.1463C504.321 95.2899 506.093 102.935 506.093 112.082V174.338H487.485L485.441 158.569C482.987 164.167 478.625 168.672 472.354 172.085C466.083 175.362 458.926 177 450.884 177ZM457.427 160.412C466.015 160.412 472.763 157.887 477.67 152.835C482.714 147.647 485.236 140.753 485.236 132.152V126.622L461.516 128.67C453.201 129.353 447.271 131.196 443.727 134.199C440.182 137.066 438.41 140.753 438.41 145.258C438.41 150.309 440.114 154.132 443.522 156.726C446.93 159.184 451.565 160.412 457.427 160.412Z" fill="#101828"/>
<path d="M587.484 73.1729V93.0372H578.691C569.558 93.0372 562.333 95.6312 557.016 100.819C551.836 105.871 549.246 113.243 549.246 122.936V174.338H527.776V73.992H548.019L549.86 94.4707H547.815C549.178 87.781 552.382 82.3883 557.425 78.2925C562.469 74.0603 569.013 71.9441 577.055 71.9441C578.691 71.9441 580.327 72.0124 581.963 72.1489C583.735 72.2855 585.576 72.6268 587.484 73.1729Z" fill="#101828"/>
<path d="M622.845 174.338H601.374V23H622.845V174.338Z" fill="#101828"/>
<path d="M675.643 177C665.011 177 656.627 174.201 650.492 168.604C644.494 162.87 641.495 155.361 641.495 146.077C641.495 136.793 644.699 129.421 651.106 123.96C657.649 118.363 666.919 115.086 678.915 114.13L709.792 111.673V109.215C709.792 104.027 708.837 99.8635 706.929 96.7234C705.02 93.5833 702.362 91.3307 698.954 89.9654C695.682 88.6002 691.797 87.9175 687.299 87.9175C679.529 87.9175 673.531 89.4876 669.305 92.6277C665.079 95.7677 662.966 100.273 662.966 106.144H644.358C644.358 98.9078 646.13 92.6959 649.675 87.508C653.355 82.1835 658.535 78.0878 665.215 75.2207C671.895 72.3537 679.597 70.9202 688.321 70.9202C696.909 70.9202 704.339 72.422 710.609 75.4255C717.017 78.4291 721.992 83.0027 725.537 89.1463C729.081 95.2899 730.853 102.935 730.853 112.082V174.338H712.245L710.201 158.569C707.747 164.167 703.385 168.672 697.114 172.085C690.843 175.362 683.686 177 675.643 177ZM682.187 160.412C690.775 160.412 697.523 157.887 702.43 152.835C707.474 147.647 709.996 140.753 709.996 132.152V126.622L686.276 128.67C677.961 129.353 672.031 131.196 668.487 134.199C664.942 137.066 663.17 140.753 663.17 145.258C663.17 150.309 664.874 154.132 668.282 156.726C671.69 159.184 676.325 160.412 682.187 160.412Z" fill="#101828"/>
<path d="M774.006 174.338H752.536V73.7872H772.166L774.211 88.3271C777.346 82.8661 781.845 78.6339 787.706 75.6303C793.568 72.4902 800.043 70.9202 807.132 70.9202C820.082 70.9202 829.693 74.6746 835.964 82.1835C842.234 89.5558 845.37 99.7269 845.37 112.697V174.338H824.104V117.612C824.104 108.191 821.991 101.297 817.765 96.9282C813.539 92.5594 807.95 90.375 800.998 90.375C792.409 90.375 785.73 93.1738 780.959 98.7713C776.324 104.232 774.006 111.536 774.006 120.684V174.338Z" fill="#101828"/>
<path d="M860.722 123.96C860.722 113.584 862.835 104.437 867.06 96.5186C871.286 88.4636 877.08 82.1835 884.441 77.6782C891.939 73.1729 900.595 70.9202 910.41 70.9202C923.497 70.9202 934.266 74.3333 942.718 81.1596C951.306 87.9858 956.35 97.2012 957.849 108.806H936.175C934.675 102.662 931.676 98.0204 927.177 94.8803C922.815 91.7402 917.499 90.1702 911.228 90.1702C905.503 90.1702 900.459 91.5355 896.097 94.266C891.734 96.9965 888.326 100.887 885.873 105.939C883.419 110.99 882.192 116.997 882.192 123.96C882.192 130.786 883.351 136.725 885.668 141.777C887.986 146.828 891.257 150.719 895.483 153.449C899.709 156.18 904.685 157.545 910.41 157.545C917.09 157.545 922.679 155.975 927.177 152.835C931.812 149.559 934.88 144.985 936.379 139.114H958.054C956.827 146.623 954.032 153.245 949.67 158.979C945.308 164.576 939.719 169.013 932.903 172.29C926.223 175.43 918.726 177 910.41 177C900.459 177 891.734 174.816 884.237 170.447C876.739 165.941 870.946 159.73 866.856 151.811C862.766 143.893 860.722 134.609 860.722 123.96Z" fill="#101828"/>
<path d="M1017.56 177C1007.75 177 999.021 174.747 991.387 170.242C983.89 165.737 977.96 159.525 973.598 151.606C969.372 143.688 967.259 134.473 967.259 123.96C967.259 113.584 969.304 104.437 973.393 96.5186C977.619 88.4636 983.481 82.1835 990.978 77.6782C998.476 73.1729 1007.06 70.9202 1016.74 70.9202C1026.56 70.9202 1035.01 73.0363 1042.1 77.2686C1049.32 81.3644 1054.91 87.1667 1058.87 94.6755C1062.82 102.184 1064.8 110.99 1064.8 121.093V128.465L978.71 128.67L979.119 114.54H1043.33C1043.33 106.758 1040.94 100.546 1036.17 95.9043C1031.4 91.1259 1024.99 88.7367 1016.95 88.7367C1010.68 88.7367 1005.36 90.1019 1001 92.8324C996.772 95.4264 993.5 99.3174 991.183 104.505C988.865 109.693 987.707 115.973 987.707 123.346C987.707 134.95 990.297 143.824 995.477 149.968C1000.66 155.975 1008.15 158.979 1017.97 158.979C1025.19 158.979 1031.12 157.613 1035.76 154.883C1040.39 152.016 1043.46 147.92 1044.96 142.596H1065C1062.68 153.381 1057.37 161.846 1049.05 167.989C1040.74 173.996 1030.24 177 1017.56 177Z" fill="#101828"/>
</svg>
