<svg width="2450" height="478" viewBox="0 0 2450 478" fill="none" xmlns="http://www.w3.org/2000/svg">
<path d="M28.0513 162.009C26.7455 153.304 32.7324 145.187 41.4234 143.879L470.386 79.327C479.077 78.0191 487.181 84.0155 488.487 92.7204L491.445 112.438C492.751 121.143 486.764 129.26 478.073 130.568L49.1099 195.12C40.4189 196.428 32.3149 190.432 31.0091 181.727L28.0513 162.009Z" fill="#101828"/>
<path d="M45.346 268.569C44.0402 259.864 50.0271 251.748 58.7181 250.44L487.681 185.887C496.372 184.579 504.476 190.576 505.782 199.281L508.74 218.999C510.045 227.704 504.059 235.82 495.367 237.128L66.4046 301.681C57.7136 302.988 49.6096 296.992 48.3038 288.287L45.346 268.569Z" fill="#101828"/>
<path d="M62.6394 375.13C61.3336 366.425 67.3205 358.309 76.0116 357.001L504.974 292.448C513.665 291.14 521.769 297.137 523.075 305.842L526.033 325.56C527.339 334.265 521.352 342.381 512.661 343.689L83.698 408.242C75.007 409.549 66.903 403.553 65.5972 394.848L62.6394 375.13Z" fill="#101828"/>
<path d="M555.67 424.709C563.983 427.418 565.641 438.47 558.49 443.506L512.266 476.056C505.815 480.599 496.845 476.754 495.674 468.942L488.165 418.884C486.993 411.073 494.438 404.758 501.937 407.201L555.67 424.709Z" fill="#101828"/>
<path d="M4.51018 34.494C-2.6413 39.53 -0.983413 50.582 7.32982 53.2907L61.0626 70.7987C68.5621 73.2423 76.0072 66.9268 74.8355 59.1156L67.3265 9.05773C66.1547 1.24651 57.1854 -2.59885 50.734 1.94414L4.51018 34.494Z" fill="#101828"/>
<path d="M684.646 61.72V416.28H631V61.72H684.646ZM769.503 291.256H671.966V243.395H758.287C781.045 243.395 798.44 237.372 810.469 225.326C822.499 213.279 828.514 196.674 828.514 175.511C828.514 154.674 822.499 138.558 810.469 127.162C798.44 115.441 781.371 109.581 759.262 109.581H663.187V61.72H769.503C792.912 61.72 813.233 66.4409 830.464 75.8828C847.696 85.3248 861.026 98.6737 870.455 115.93C879.884 133.186 884.598 153.209 884.598 176C884.598 198.465 879.884 218.488 870.455 236.07C861.026 253.326 847.696 266.837 830.464 276.605C813.233 286.372 792.912 291.256 769.503 291.256Z" fill="#101828"/>
<path d="M981.32 422.629C955.96 422.629 935.965 415.955 921.334 402.606C907.029 388.931 899.876 371.024 899.876 348.884C899.876 326.745 907.517 309.163 922.798 296.14C938.404 282.791 960.512 274.977 989.123 272.698L1062.76 266.837V260.977C1062.76 248.605 1060.49 238.675 1055.94 231.186C1051.38 223.698 1045.04 218.326 1036.92 215.07C1029.11 211.814 1019.85 210.186 1009.12 210.186C990.586 210.186 976.281 213.93 966.202 221.419C956.123 228.907 951.083 239.651 951.083 253.651H906.704C906.704 236.395 910.93 221.581 919.384 209.209C928.162 196.511 940.517 186.744 956.448 179.907C972.379 173.069 990.749 169.651 1011.56 169.651C1032.04 169.651 1049.76 173.232 1064.71 180.395C1080 187.558 1091.86 198.465 1100.32 213.116C1108.77 227.767 1113 246 1113 267.814V416.28H1068.62L1063.74 378.675C1057.89 392.024 1047.48 402.769 1032.53 410.908C1017.57 418.722 1000.5 422.629 981.32 422.629ZM996.926 383.071C1017.41 383.071 1033.5 377.047 1045.21 365.001C1057.24 352.629 1063.25 336.187 1063.25 315.675V302.489L1006.68 307.373C986.847 309.001 972.704 313.396 964.251 320.559C955.798 327.396 951.571 336.187 951.571 346.931C951.571 358.978 955.635 368.094 963.763 374.28C971.891 380.141 982.946 383.071 996.926 383.071Z" fill="#101828"/>
<path d="M1307.11 175.023V222.395H1286.14C1264.36 222.395 1247.13 228.581 1234.45 240.954C1222.09 253 1215.92 270.582 1215.92 293.698V416.28H1164.71V176.976H1212.99L1217.38 225.814H1212.5C1215.75 209.86 1223.4 197 1235.42 187.232C1247.45 177.139 1263.06 172.093 1282.24 172.093C1286.14 172.093 1290.05 172.256 1293.95 172.581C1298.17 172.907 1302.56 173.721 1307.11 175.023Z" fill="#101828"/>
<path d="M1391.45 416.28H1340.24V55.3711H1391.45V416.28Z" fill="#101828"/>
<path d="M1517.38 422.629C1492.02 422.629 1472.02 415.955 1457.39 402.606C1443.09 388.931 1435.93 371.024 1435.93 348.884C1435.93 326.745 1443.57 309.163 1458.85 296.14C1474.46 282.791 1496.57 274.977 1525.18 272.698L1598.82 266.837V260.977C1598.82 248.605 1596.55 238.675 1591.99 231.186C1587.44 223.698 1581.1 218.326 1572.97 215.07C1565.17 211.814 1555.9 210.186 1545.18 210.186C1526.64 210.186 1512.34 213.93 1502.26 221.419C1492.18 228.907 1487.14 239.651 1487.14 253.651H1442.76C1442.76 236.395 1446.99 221.581 1455.44 209.209C1464.22 196.511 1476.57 186.744 1492.5 179.907C1508.44 173.069 1526.81 169.651 1547.61 169.651C1568.1 169.651 1585.82 173.232 1600.77 180.395C1616.05 187.558 1627.92 198.465 1636.37 213.116C1644.83 227.767 1649.05 246 1649.05 267.814V416.28H1604.67L1599.8 378.675C1593.94 392.024 1583.54 402.769 1568.58 410.908C1553.63 418.722 1536.56 422.629 1517.38 422.629ZM1532.98 383.071C1553.47 383.071 1569.56 377.047 1581.26 365.001C1593.29 352.629 1599.31 336.187 1599.31 315.675V302.489L1542.74 307.373C1522.9 309.001 1508.76 313.396 1500.31 320.559C1491.85 327.396 1487.63 336.187 1487.63 346.931C1487.63 358.978 1491.69 368.094 1499.82 374.28C1507.95 380.141 1519 383.071 1532.98 383.071Z" fill="#101828"/>
<path d="M1751.97 416.28H1700.77V176.488H1747.58L1752.46 211.163C1759.94 198.139 1770.67 188.046 1784.65 180.883C1798.63 173.395 1814.07 169.651 1830.98 169.651C1861.87 169.651 1884.79 178.604 1899.74 196.511C1914.7 214.093 1922.18 238.349 1922.18 269.279V416.28H1871.46V281C1871.46 258.535 1866.42 242.093 1856.34 231.674C1846.26 221.256 1832.93 216.046 1816.35 216.046C1795.87 216.046 1779.93 222.721 1768.56 236.07C1757.5 249.093 1751.97 266.512 1751.97 288.326V416.28Z" fill="#101828"/>
<path d="M1958.79 296.14C1958.79 271.396 1963.83 249.582 1973.91 230.698C1983.99 211.488 1997.81 196.511 2015.36 185.767C2033.25 175.023 2053.89 169.651 2077.3 169.651C2108.51 169.651 2134.2 177.79 2154.35 194.07C2174.84 210.349 2186.87 232.326 2190.44 260H2138.75C2135.17 245.349 2128.02 234.279 2117.29 226.791C2106.89 219.302 2094.21 215.558 2079.25 215.558C2065.6 215.558 2053.57 218.814 2043.16 225.326C2032.76 231.837 2024.63 241.116 2018.78 253.163C2012.93 265.21 2010 279.535 2010 296.14C2010 312.419 2012.76 326.582 2018.29 338.629C2023.82 350.675 2031.62 359.954 2041.7 366.466C2051.78 372.978 2063.64 376.234 2077.3 376.234C2093.23 376.234 2106.56 372.489 2117.29 365.001C2128.34 357.187 2135.66 346.28 2139.24 332.28H2190.93C2188.01 350.187 2181.34 365.978 2170.94 379.652C2160.53 393.001 2147.2 403.583 2130.95 411.397C2115.01 418.885 2097.13 422.629 2077.3 422.629C2053.57 422.629 2032.76 417.42 2014.88 407.001C1996.99 396.257 1983.18 381.443 1973.42 362.559C1963.67 343.675 1958.79 321.535 1958.79 296.14Z" fill="#101828"/>
<path d="M2332.86 422.629C2309.45 422.629 2288.64 417.257 2270.43 406.513C2252.55 395.769 2238.41 380.954 2228 362.071C2217.92 343.187 2212.89 321.21 2212.89 296.14C2212.89 271.396 2217.76 249.582 2227.52 230.698C2237.59 211.488 2251.58 196.511 2269.46 185.767C2287.34 175.023 2307.82 169.651 2330.91 169.651C2354.31 169.651 2374.47 174.697 2391.38 184.79C2408.61 194.558 2421.94 208.395 2431.37 226.302C2440.8 244.209 2445.51 265.21 2445.51 289.303V306.884L2240.2 307.373L2241.17 273.675H2394.31C2394.31 255.116 2388.62 240.302 2377.24 229.233C2365.86 217.837 2350.58 212.139 2331.39 212.139C2316.44 212.139 2303.76 215.395 2293.35 221.907C2283.27 228.093 2275.47 237.372 2269.94 249.744C2264.42 262.117 2261.65 277.093 2261.65 294.675C2261.65 322.349 2267.83 343.512 2280.19 358.164C2292.54 372.489 2310.42 379.652 2333.83 379.652C2351.06 379.652 2365.21 376.396 2376.26 369.885C2387.31 363.047 2394.63 353.28 2398.21 340.582H2446C2440.47 366.303 2427.79 386.489 2407.96 401.141C2388.13 415.466 2363.09 422.629 2332.86 422.629Z" fill="#101828"/>
</svg>
